<svg width="32" height="32" viewBox="0 0 32 32" fill="none" xmlns="http://www.w3.org/2000/svg">
<path d="M12.0001 4H20.0001L22.6667 6.66667H28.0001C28.3537 6.66667 28.6928 6.80714 28.9429 7.05719C29.1929 7.30724 29.3334 7.64638 29.3334 8V26.6667C29.3334 27.0203 29.1929 27.3594 28.9429 27.6095C28.6928 27.8595 28.3537 28 28.0001 28H4.00008C3.64646 28 3.30732 27.8595 3.05727 27.6095C2.80722 27.3594 2.66675 27.0203 2.66675 26.6667V8C2.66675 7.64638 2.80722 7.30724 3.05727 7.05719C3.30732 6.80714 3.64646 6.66667 4.00008 6.66667H9.33342L12.0001 4ZM16.0001 25.3333C18.1218 25.3333 20.1566 24.4905 21.6569 22.9902C23.1572 21.4899 24.0001 19.4551 24.0001 17.3333C24.0001 15.2116 23.1572 13.1768 21.6569 11.6765C20.1566 10.1762 18.1218 9.33333 16.0001 9.33333C13.8784 9.33333 11.8435 10.1762 10.3432 11.6765C8.84294 13.1768 8.00008 15.2116 8.00008 17.3333C8.00008 19.4551 8.84294 21.4899 10.3432 22.9902C11.8435 24.4905 13.8784 25.3333 16.0001 25.3333ZM16.0001 22.6667C14.5856 22.6667 13.229 22.1048 12.2288 21.1046C11.2287 20.1044 10.6667 18.7478 10.6667 17.3333C10.6667 15.9188 11.2287 14.5623 12.2288 13.5621C13.229 12.5619 14.5856 12 16.0001 12C17.4146 12 18.7711 12.5619 19.7713 13.5621C20.7715 14.5623 21.3334 15.9188 21.3334 17.3333C21.3334 18.7478 20.7715 20.1044 19.7713 21.1046C18.7711 22.1048 17.4146 22.6667 16.0001 22.6667Z" fill="white"/>
</svg>
