<svg width="24" height="24" viewBox="0 0 24 24" fill="none" xmlns="http://www.w3.org/2000/svg">
<g opacity="0.5">
<path d="M5.88244 20.7133H18.1054C18.992 20.7133 19.6934 21.5696 19.7056 22.6347L19.7208 24H4.27612L4.28215 22.6347C4.44289 21.4706 5.23212 20.7133 5.8824 20.7133H5.88244Z" fill="white"/>
<path d="M12.0257 5.21863C11.6149 5.21863 11.2028 5.37279 11.0041 5.68531L8.12049 11.224L3.37908 6.67661C3.1577 6.49469 2.85925 6.41907 2.55896 6.43277C2.05906 6.45524 1.55583 6.72228 1.40625 7.15076L4.38679 18.1014C4.70954 18.5788 4.72927 19.2424 5.77461 19.2424H18.2313C19.2766 19.2424 19.2785 18.6059 19.6195 18.1014L22.5988 7.15076C22.4501 6.72225 21.9471 6.45503 21.447 6.43277C21.1467 6.41944 20.8482 6.49469 20.6274 6.67661L15.9155 11.2013L13.0456 5.68559C12.8469 5.37307 12.4365 5.21891 12.0258 5.21891L12.0257 5.21863Z" fill="white"/>
<path d="M3.1124 3.88506C3.1124 4.79159 2.41578 5.52641 1.5562 5.52641C0.696622 5.52641 0 4.79159 0 3.88506C0 2.97872 0.696622 2.2439 1.5562 2.2439C2.41578 2.2439 3.1124 2.97872 3.1124 3.88506Z" fill="white"/>
<path d="M13.8226 1.91821C13.8226 2.9776 13.0078 3.83629 12.0026 3.83629C10.9977 3.83629 10.1829 2.97764 10.1829 1.91821C10.1829 0.858644 10.9977 0 12.0026 0C13.0078 0 13.8226 0.858644 13.8226 1.91821Z" fill="white"/>
<path d="M23.9971 3.88506C23.9971 4.79102 23.2999 5.52622 22.4405 5.52622C21.5803 5.52622 20.8845 4.79102 20.8845 3.88506C20.8845 2.97872 21.5803 2.24408 22.4405 2.24408C23.3001 2.2439 23.9971 2.9789 23.9971 3.88506Z" fill="white"/>
</g>
</svg>
