<svg width="24" height="24" viewBox="0 0 24 24" fill="none" xmlns="http://www.w3.org/2000/svg">
<path d="M5.88243 20.7134H18.1054C18.992 20.7134 19.6934 21.5696 19.7056 22.6347L19.7208 24.0001H4.27612L4.28214 22.6347C4.44288 21.4706 5.23211 20.7134 5.88239 20.7134H5.88243Z" fill="white"/>
<path d="M12.0257 5.21875C11.6149 5.21875 11.2028 5.37291 11.0041 5.68543L8.12053 11.2241L3.37912 6.67673C3.15774 6.49481 2.85929 6.41919 2.559 6.43289C2.0591 6.45536 1.55587 6.7224 1.40629 7.15088L4.38683 18.1015C4.70958 18.5789 4.72931 19.2425 5.77465 19.2425H18.2314C19.2767 19.2425 19.2786 18.606 19.6196 18.1015L22.5988 7.15088C22.4502 6.72238 21.9471 6.45515 21.447 6.43289C21.1467 6.41956 20.8483 6.49481 20.6275 6.67673L15.9155 11.2015L13.0457 5.68571C12.8469 5.37319 12.4365 5.21903 12.0259 5.21903L12.0257 5.21875Z" fill="white"/>
<path d="M3.1124 3.88506C3.1124 4.79159 2.41578 5.52641 1.5562 5.52641C0.696622 5.52641 0 4.79159 0 3.88506C0 2.97872 0.696622 2.2439 1.5562 2.2439C2.41578 2.2439 3.1124 2.97872 3.1124 3.88506Z" fill="white"/>
<path d="M13.8227 1.91821C13.8227 2.9776 13.0078 3.83629 12.0027 3.83629C10.9977 3.83629 10.1829 2.97764 10.1829 1.91821C10.1829 0.858644 10.9977 0 12.0027 0C13.0078 0 13.8227 0.858644 13.8227 1.91821Z" fill="white"/>
<path d="M23.9971 3.88512C23.9971 4.79108 23.2999 5.52628 22.4405 5.52628C21.5802 5.52628 20.8845 4.79108 20.8845 3.88512C20.8845 2.97878 21.5802 2.24414 22.4405 2.24414C23.3001 2.24396 23.9971 2.97897 23.9971 3.88512Z" fill="white"/>
</svg>
