<svg width="23" height="24" viewBox="0 0 23 24" fill="none" xmlns="http://www.w3.org/2000/svg">
<path d="M20.1812 8.90197H20.1053C20.1053 3.99577 16.1096 0 11.2034 0C6.29716 0 2.30139 3.99577 2.30139 8.90197H2.22554C0.986298 8.90197 0 9.91347 0 11.1275V21.7745C0 23.0137 1.0115 24 2.22554 24H20.1812C21.4205 24 22.4067 22.9885 22.4067 21.7745L22.4066 11.1271C22.432 9.88795 21.4203 8.9017 20.1812 8.9017L20.1812 8.90197ZM13.0748 19.7765C13.1254 19.9536 13.0748 20.1558 12.9737 20.3077C12.8472 20.4594 12.6703 20.5353 12.4932 20.5353L9.91356 20.5351C9.71122 20.5351 9.55951 20.4592 9.43301 20.3075C9.30653 20.1558 9.2813 19.9535 9.33193 19.7764L10.1664 16.5647C9.45824 16.1854 8.97774 15.4519 8.97774 14.5921C8.97774 13.3529 9.98924 12.3666 11.2033 12.3666C12.4171 12.3666 13.4288 13.3781 13.4288 14.5921C13.4288 15.4519 12.9483 16.1854 12.2402 16.5647L13.0748 19.7765ZM17.0706 8.90197H5.33614C5.33614 5.66489 7.96618 3.03476 11.2033 3.03476C14.4404 3.03476 17.0706 5.66498 17.0706 8.90197Z" fill="white"/>
</svg>
