<svg width="24" height="24" viewBox="0 0 24 24" fill="none" xmlns="http://www.w3.org/2000/svg">
<path d="M23.5219 10.0695L12.8874 0.357375C12.3644 -0.119934 11.586 -0.118962 11.0649 0.359322L0.475585 10.0723C-0.486801 10.9552 0.109282 12.6162 1.38811 12.6162C2.15291 12.6162 2.77315 13.2661 2.77315 14.068V22.5482C2.77315 23.3504 3.39366 23.9997 4.15851 23.9997H9.01236L9.01267 16.5674C9.01267 16.1138 9.36288 15.7468 9.79513 15.7468H14.2044C14.6366 15.7468 14.9875 16.1138 14.9875 16.5674V24H19.5973C20.3627 24 20.9827 23.3507 20.9827 22.5486V14.0683C20.9827 13.2662 21.6029 12.6165 22.3677 12.6165H22.6117C23.8924 12.6159 24.4875 10.9513 23.522 10.0701" fill="white"/>
</svg>
