<svg width="19" height="24" viewBox="0 0 19 24" fill="none" xmlns="http://www.w3.org/2000/svg">
<path d="M19 24H0V21.7143C0 20.1988 0.625556 18.7453 1.73905 17.6737C2.85255 16.602 4.36278 16 5.9375 16H13.0625C14.6372 16 16.1474 16.602 17.2609 17.6737C18.3744 18.7453 19 20.1988 19 21.7143V24ZM9.5 13.7143C8.56433 13.7143 7.63783 13.5369 6.77338 13.1923C5.90894 12.8477 5.12348 12.3426 4.46186 11.7059C3.80025 11.0691 3.27542 10.3132 2.91736 9.48126C2.55929 8.64931 2.375 7.75764 2.375 6.85714C2.375 5.95665 2.55929 5.06497 2.91736 4.23303C3.27542 3.40108 3.80025 2.64516 4.46186 2.00841C5.12348 1.37167 5.90894 0.866573 6.77338 0.521969C7.63783 0.177365 8.56433 -1.34184e-08 9.5 0C11.3897 2.70997e-08 13.2019 0.722447 14.5381 2.00841C15.8743 3.29437 16.625 5.03852 16.625 6.85714C16.625 8.67577 15.8743 10.4199 14.5381 11.7059C13.2019 12.9918 11.3897 13.7143 9.5 13.7143Z" fill="white"/>
</svg>
