<svg width="22" height="20" viewBox="0 0 22 20" fill="none" xmlns="http://www.w3.org/2000/svg">
<path d="M4.33405 2.54495C5.36078 1.62523 6.56673 0.92794 7.87605 0.496948C8.25043 0.965972 8.72571 1.34458 9.26657 1.60462C9.80742 1.86466 10.3999 1.99944 11 1.99895C11.6002 1.99944 12.1927 1.86466 12.7335 1.60462C13.2744 1.34458 13.7497 0.965972 14.124 0.496948C15.4334 0.92794 16.6393 1.62523 17.666 2.54495C17.4476 3.1034 17.3577 3.70389 17.403 4.30184C17.4484 4.89979 17.6278 5.47985 17.928 5.99895C18.2276 6.51904 18.6406 6.9649 19.1363 7.30337C19.632 7.64184 20.1976 7.86421 20.791 7.95395C21.0716 9.30285 21.0716 10.695 20.791 12.0439C19.6311 12.2219 18.561 12.9039 17.928 13.9989C17.6277 14.5182 17.4481 15.0984 17.4028 15.6965C17.3574 16.2947 17.4474 16.8954 17.666 17.4539C16.6392 18.3733 15.4333 19.0703 14.124 19.5009C13.7496 19.0321 13.2742 18.6537 12.7334 18.3938C12.1925 18.134 11.6001 17.9993 11 17.9999C10.3999 17.9995 9.80742 18.1342 9.26657 18.3943C8.72571 18.6543 8.25043 19.0329 7.87605 19.5019C6.56682 19.0713 5.36087 18.3743 4.33405 17.4549C4.5527 16.8964 4.64269 16.2957 4.59733 15.6975C4.55197 15.0994 4.37243 14.5192 4.07205 13.9999C3.77234 13.48 3.3593 13.0344 2.86363 12.6961C2.36797 12.3578 1.80242 12.1356 1.20905 12.0459C0.928364 10.6967 0.928364 9.30417 1.20905 7.95495C1.80251 7.86521 2.36811 7.64284 2.86379 7.30437C3.35946 6.9659 3.77245 6.52004 4.07205 5.99995C4.37228 5.48085 4.55173 4.90079 4.59709 4.30284C4.64245 3.70489 4.55254 3.1044 4.33405 2.54595V2.54495ZM12.5 12.5969C12.844 12.4014 13.1458 12.1398 13.3883 11.8271C13.6307 11.5144 13.8088 11.1568 13.9125 10.775C14.0161 10.3932 14.0433 9.99465 13.9923 9.60231C13.9413 9.20998 13.8132 8.8316 13.6153 8.48897C13.4175 8.14633 13.1539 7.84622 12.8396 7.60589C12.5253 7.36556 12.1666 7.18978 11.7841 7.08865C11.4016 6.98753 11.0029 6.96306 10.6109 7.01665C10.2189 7.07025 9.84136 7.20086 9.50005 7.40095C8.81663 7.8016 8.31942 8.45631 8.11694 9.22219C7.91445 9.98808 8.02312 10.803 8.41923 11.489C8.81533 12.1751 9.46673 12.6766 10.2313 12.8842C10.9958 13.0918 11.8114 12.9885 12.5 12.5969Z" fill="#BBBBBB"/>
</svg>
