<svg width="81" height="61" viewBox="0 0 81 61" fill="none" xmlns="http://www.w3.org/2000/svg">
<path fill-rule="evenodd" clip-rule="evenodd" d="M82.9156 60.4916H-2.65466V0.491577H82.9156V60.4916Z" fill="white"/>
<path fill-rule="evenodd" clip-rule="evenodd" d="M40.8805 30.5385C40.8805 34.035 39.4915 37.3883 37.0191 39.8607C34.5467 42.3331 31.1934 43.722 27.6969 43.722C24.2004 43.722 20.8471 42.3331 18.3747 39.8607C15.9023 37.3883 14.5133 34.035 14.5133 30.5385C14.5133 27.0419 15.9023 23.6886 18.3747 21.2162C20.8471 18.7438 24.2004 17.3549 27.6969 17.3549C31.1934 17.3549 34.5467 18.7438 37.0191 21.2162C39.4915 23.6886 40.8805 27.0419 40.8805 30.5385V30.5385Z" fill="white"/>
<path fill-rule="evenodd" clip-rule="evenodd" d="M57.4156 31.3119C57.4156 40.8041 49.7985 48.515 40.3883 48.515C30.9781 48.515 23.3727 40.8041 23.3727 31.3119C23.3727 21.8197 30.9899 14.097 40.4 14.097C49.8102 14.097 57.4156 21.8197 57.4156 31.3119Z" fill="#C70000"/>
<path fill-rule="evenodd" clip-rule="evenodd" d="M5.5719 15.3509L15.3688 4.01892L17.7008 6.02283L7.89221 17.3666L5.5719 15.3509ZM8.78284 18.1283L18.5797 6.79626L20.9117 8.78845L11.1032 20.1439L8.78284 18.1283Z" fill="black"/>
<path fill-rule="evenodd" clip-rule="evenodd" d="M5.5719 15.351L15.3688 4.01892L17.7008 6.02283L7.89221 17.3666L5.5719 15.351Z" fill="black"/>
<path fill-rule="evenodd" clip-rule="evenodd" d="M5.5719 15.351L15.3688 4.01892L17.7008 6.02283L7.89221 17.3666L5.5719 15.351ZM12.0641 20.976L21.861 9.62048L24.193 11.6361L14.3844 22.9799L12.0641 20.976Z" fill="black"/>
<path fill-rule="evenodd" clip-rule="evenodd" d="M5.5719 15.351L15.3688 4.01892L17.7008 6.02283L7.89221 17.3666L5.5719 15.351Z" fill="black"/>
<path fill-rule="evenodd" clip-rule="evenodd" d="M5.5719 15.351L15.3688 4.01892L17.7008 6.02283L7.89221 17.3666L5.5719 15.351ZM65.1969 4.0072L74.9235 15.4213L72.5797 17.4135L62.8532 5.99939L65.1969 4.0072ZM58.6696 9.57361L68.3961 20.9877L66.0524 22.9799L56.3258 11.5658L58.6696 9.57361Z" fill="black"/>
<path fill-rule="evenodd" clip-rule="evenodd" d="M60.2985 16.1478L69.486 8.20251L71.2086 10.1947L61.3649 19.0306L60.275 16.1478H60.2985Z" fill="white"/>
<path fill-rule="evenodd" clip-rule="evenodd" d="M71.6187 44.1322L62.1969 55.3588L59.8883 53.4369L69.3102 42.2103L71.6187 44.1322ZM61.9625 6.76111L71.6891 18.1752L69.357 20.1674L59.6422 8.74158L61.9625 6.76111ZM74.818 46.7924L65.3844 58.0189L63.0641 56.0971L72.4976 44.8705L74.818 46.7924ZM68.3609 41.4252L58.9391 52.6517L56.6305 50.7299L66.0524 39.5033L68.3609 41.4252Z" fill="black"/>
<path fill-rule="evenodd" clip-rule="evenodd" d="M23.6187 28.2767C24.1578 32.6126 24.943 37.4408 31.6109 37.933C34.107 38.0853 38.9703 37.347 40.6344 30.5267C42.8375 23.9876 49.4234 22.1126 53.9117 25.6517C56.4781 27.3158 57.1812 29.9525 57.3453 31.9447C57.1461 38.2728 53.4898 43.7806 48.8141 46.2416C43.4234 49.4408 35.9703 49.5111 29.443 44.6595C26.5016 41.9056 22.3883 36.808 23.6187 28.2767V28.2767Z" fill="#3D5897"/>
<path fill-rule="evenodd" clip-rule="evenodd" d="M62.4547 43.9681L71.6657 51.89L69.9547 53.8822L59.7477 45.4681L62.443 43.9681H62.4547Z" fill="white"/>
<path fill-rule="evenodd" clip-rule="evenodd" d="M11.1383 42.3978L20.8649 53.8002L18.5211 55.7924L8.79456 44.39L11.1383 42.3978Z" fill="black"/>
<path fill-rule="evenodd" clip-rule="evenodd" d="M9.46252 51.7845L18.6735 43.8275L20.3961 45.8197L10.5524 54.6674L9.46252 51.7728V51.7845Z" fill="white"/>
<path fill-rule="evenodd" clip-rule="evenodd" d="M14.3727 39.6439L24.0992 51.0463L21.7555 53.0385L12.0289 41.6361L14.3727 39.6439ZM7.84534 45.2103L17.5719 56.6127L15.2281 58.6049L5.50159 47.2025L7.84534 45.2103Z" fill="black"/>
</svg>
