<svg width="36" height="36" viewBox="0 0 36 36" fill="none" xmlns="http://www.w3.org/2000/svg">
<mask id="mask0_13_3753" style="mask-type:alpha" maskUnits="userSpaceOnUse" x="0" y="0" width="36" height="36">
<circle cx="18" cy="18" r="18" fill="#C4C4C4"/>
</mask>
<g mask="url(#mask0_13_3753)">
<mask id="mask1_13_3753" style="mask-type:alpha" maskUnits="userSpaceOnUse" x="-6" y="0" width="48" height="36">
<rect x="-6" width="48" height="36" fill="white"/>
</mask>
<g mask="url(#mask1_13_3753)">
<path fill-rule="evenodd" clip-rule="evenodd" d="M-6 0V36H42V0H-6Z" fill="#2E42A5"/>
<mask id="mask2_13_3753" style="mask-type:alpha" maskUnits="userSpaceOnUse" x="-6" y="0" width="48" height="36">
<path fill-rule="evenodd" clip-rule="evenodd" d="M-6 0V36H42V0H-6Z" fill="white"/>
</mask>
<g mask="url(#mask2_13_3753)">
<mask id="mask3_13_3753" style="mask-type:alpha" maskUnits="userSpaceOnUse" x="-6" y="0" width="48" height="36">
<rect x="-6" width="48" height="36" rx="5" fill="white"/>
</mask>
<g mask="url(#mask3_13_3753)">
<path d="M-11.3463 33.4281L-0.783779 37.8952L42.2381 4.85681L47.8096 -1.78141L36.5145 -3.27445L18.9669 10.9628L4.84287 20.5553L-11.3463 33.4281Z" fill="white"/>
<path d="M-9.89941 36.558L-4.51829 39.1503L45.8098 -2.39812H38.254L-9.89941 36.558Z" fill="#F50100"/>
<path d="M47.3428 33.4281L36.7802 37.8952L-6.24162 4.85681L-11.8131 -1.78141L-0.518005 -3.27445L17.0296 10.9628L31.1536 20.5553L47.3428 33.4281Z" fill="white"/>
<path d="M46.984 35.6743L41.6029 38.2667L20.1727 20.4776L13.8191 18.4901L-12.3476 -1.75869H-4.79185L21.3601 18.0095L28.3066 20.3927L46.984 35.6743Z" fill="#F50100"/>
<mask id="path-10-inside-1_13_3753" fill="white">
<path fill-rule="evenodd" clip-rule="evenodd" d="M23.6699 -2.99998H12.3366V12H-8.95862V24H12.3366V39H23.6699V24H45.0414V12H23.6699V-2.99998Z"/>
</mask>
<path fill-rule="evenodd" clip-rule="evenodd" d="M23.6699 -2.99998H12.3366V12H-8.95862V24H12.3366V39H23.6699V24H45.0414V12H23.6699V-2.99998Z" fill="#F50100"/>
<path d="M12.3366 -2.99998V-4.99998H10.3366V-2.99998H12.3366ZM23.6699 -2.99998H25.6699V-4.99998H23.6699V-2.99998ZM12.3366 12V14H14.3366V12H12.3366ZM-8.95862 12V10H-10.9586V12H-8.95862ZM-8.95862 24H-10.9586V26H-8.95862V24ZM12.3366 24H14.3366V22H12.3366V24ZM12.3366 39H10.3366V41H12.3366V39ZM23.6699 39V41H25.6699V39H23.6699ZM23.6699 24V22H21.6699V24H23.6699ZM45.0414 24V26H47.0414V24H45.0414ZM45.0414 12H47.0414V10H45.0414V12ZM23.6699 12H21.6699V14H23.6699V12ZM12.3366 -0.999985H23.6699V-4.99998H12.3366V-0.999985ZM14.3366 12V-2.99998H10.3366V12H14.3366ZM-8.95862 14H12.3366V10H-8.95862V14ZM-6.95862 24V12H-10.9586V24H-6.95862ZM12.3366 22H-8.95862V26H12.3366V22ZM14.3366 39V24H10.3366V39H14.3366ZM23.6699 37H12.3366V41H23.6699V37ZM21.6699 24V39H25.6699V24H21.6699ZM45.0414 22H23.6699V26H45.0414V22ZM43.0414 12V24H47.0414V12H43.0414ZM23.6699 14H45.0414V10H23.6699V14ZM21.6699 -2.99998V12H25.6699V-2.99998H21.6699Z" fill="white" mask="url(#path-10-inside-1_13_3753)"/>
</g>
</g>
</g>
</g>
</svg>
